# xmcd
#
# Track frame offsets:
#	150
#	14368
#	36750
#	65296
#	99531
#	139879
#	170082
#	202674
#	238892
#	259264
#	275536
#	292009
#	306796
#	321640
#	336321
#
# Disc length: 4766 seconds
#
# Revision: 0
# Processed by: cddbd v1.5PL3 Copyright (c) Steve Scherf et al.
# Submitted via: audiograbber 1.83.01
#
DISCID=ea129c0f
DTITLE=Сборник - Сборник
DYEAR=1900
DGENRE=
TTITLE0=It's Your Duty
TTITLE1=Ma Backer
TTITLE2=Sweet
TTITLE3=Push The Feeling On (MV Remix)
TTITLE4=Enola Gay (Dancefloor Killa Mi
TTITLE5=Enola Gay (Dub Remix)
TTITLE6=Rockstars (White Label)
TTITLE7=imarainbowtoo
TTITLE8=Don`t_Stop_Go!
TTITLE9=Боби Боба (rmx)
TTITLE10=ть
TTITLE11=Белое платье
TTITLE12=м Руссо  Знаю rmx
TTITLE13=Глаза
TTITLE14=Breath
EXTD=
EXTT0=
EXTT1=
EXTT2=
EXTT3=
EXTT4=
EXTT5=
EXTT6=
EXTT7=
EXTT8=
EXTT9=
EXTT10=
EXTT11=
EXTT12=
EXTT13=
EXTT14=
PLAYORDER=
